<svg style="clip-rule:evenodd;fill-rule:evenodd;fill:#ffffff;stroke-linejoin:round;stroke-miterlimit:2" version="1.1" viewBox="0 0 9167 3750" xml:space="preserve" xmlns="http://www.w3.org/2000/svg">
    <path d="m3739.5 2706.7 413.6-1573.5h517l413.6 1573.5h-305.7l-85.416-346.16h-561.95l-85.417 346.16h-305.7zm460.8-620.4h422.59l-191.06-766.5h-40.461l-191.06 766.5z" style="fill-rule:nonzero"/>
    <path d="m5799.9 2738.2c-194.81 0-349.16-54.322-463.05-162.97s-170.83-264.12-170.83-466.42v-377.63c0-202.3 56.944-357.78 170.83-466.42s268.24-162.97 463.05-162.97c193.31 0 342.79 52.824 448.44 158.47s158.47 250.63 158.47 434.95v13.487h-292.22v-22.478c0-92.909-25.85-169.34-77.549-229.28-51.7-59.942-130.75-89.912-237.14-89.912-104.9 0-187.32 32.218-247.26 96.655-59.941 64.437-89.912 152.1-89.912 262.99v386.62c0 109.39 29.971 196.68 89.912 261.87 59.942 65.186 142.36 97.78 247.26 97.78 106.4 0 185.44-30.346 237.14-91.037 51.699-60.69 77.549-136.74 77.549-228.15v-40.46h292.22v31.469c0 184.32-52.823 329.3-158.47 434.95-105.65 105.65-255.13 158.47-448.44 158.47z" style="fill-rule:nonzero"/>
    <path d="m6592.5 2706.7v-1573.5h647.37c98.904 0 186.19 19.855 261.87 59.567 75.676 39.711 134.87 95.531 177.58 167.46 42.708 71.93 64.062 157.35 64.062 256.25v31.469c0 97.405-22.103 182.45-66.31 255.13-44.207 72.679-104.15 128.87-179.82 168.58-75.676 39.711-161.47 59.567-257.37 59.567h-350.66v575.44h-296.71zm296.71-845.18h321.44c70.431 0 127.38-19.481 170.83-58.443 43.458-38.962 65.187-92.16 65.187-159.59v-22.478c0-67.434-21.729-120.63-65.187-159.59-43.457-38.963-100.4-58.443-170.83-58.443h-321.44v458.55z" style="fill-rule:nonzero"/>
    <path d="m8490.9 2738.2c-194.81 0-349.16-54.322-463.05-162.97-113.89-108.64-170.83-264.12-170.83-466.42v-377.63c0-202.3 56.945-357.78 170.83-466.42 113.89-108.64 268.24-162.97 463.05-162.97 193.31 0 342.79 52.824 448.44 158.47s158.47 250.63 158.47 434.95v13.487h-292.22v-22.478c0-92.909-25.85-169.34-77.55-229.28-51.699-59.942-130.75-89.912-237.14-89.912-104.9 0-187.32 32.218-247.26 96.655-59.941 64.437-89.912 152.1-89.912 262.99v386.62c0 109.39 29.971 196.68 89.912 261.87 59.942 65.186 142.36 97.78 247.26 97.78 106.4 0 185.44-30.346 237.14-91.037 51.7-60.69 77.55-136.74 77.55-228.15v-40.46h292.22v31.469c0 184.32-52.824 329.3-158.47 434.95-105.65 105.65-255.13 158.47-448.44 158.47z" style="fill-rule:nonzero"/>
    <path d="m1606.6 2352.1c-263.32 0-477.1-180.96-477.1-477.1s213.78-477.1 477.1-477.1 477.1 180.99 477.1 477.1-213.78 477.1-477.1 477.1z" style="fill:#cc001a"/>
    <path d="m2259.2 900.96c-42.107-71.036-66.284-157.6-66.284-257.19 0-296.14 213.78-477.1 477.1-477.1s477.1 180.99 477.1 477.1c0 244.76-146.07 410.87-345.44 461.12v1540c199.8 49.992 346.28 216.22 346.28 461.33 0 296.11-213.78 477.1-477.1 477.1s-477.1-180.96-477.1-477.1c0-245.13 146.48-411.34 346.28-461.33v-1539.6c-29.932-7.434-58.671-17.473-85.906-29.992l-381.44 423.42c-55.105-69.65-126.24-123.59-207.99-159.65l394.49-438.13z"/>
    <path d="m919.3 2795.5c64.91 79.271 103.72 184.53 103.72 310.69 0 296.11-213.78 477.1-477.1 477.1s-477.1-180.96-477.1-477.1 213.78-477.1 477.1-477.1c53.056 0 104.1 7.348 151.79 21.504l405.83-450.71c47.186 76.653 111.57 138.19 187.78 182.45l-372.01 413.16z"/>
</svg>
